<?xml version="1.0" encoding="utf-8"?>
<!-- Generator: Adobe Illustrator 24.2.1, SVG Export Plug-In . SVG Version: 6.00 Build 0)  -->
<svg version="1.1" id="Layer_1" xmlns="http://www.w3.org/2000/svg" xmlns:xlink="http://www.w3.org/1999/xlink" x="0px" y="0px"
	 viewBox="0 0 2000 2000" style="enable-background:new 0 0 2000 2000;" xml:space="preserve">
<style type="text/css">
	.st0{fill:#70757A;}
</style>
<g>
	<path class="st0" d="M1285.96,1549.65c0.21,0.01,0.32,0.01,0.32,0.01S1286.17,1549.65,1285.96,1549.65z"/>
	<path class="st0" d="M1316.78,465.34c-0.1-0.18-0.16-0.28-0.16-0.28S1316.67,465.16,1316.78,465.34z"/>
	<path class="st0" d="M1618.17,1010.1c0.1-0.18,0.16-0.28,0.16-0.28S1618.27,1009.91,1618.17,1010.1z"/>
	<path class="st0" d="M1754.55,1222.67c-100.51-72.01-132.2-128.29-140.08-164.85c1.44-15.08,2.34-30.31,2.67-45.68
		c0.46-1.01,0.83-1.69,1.03-2.04c-0.18,0.31-0.53,0.9-1.03,1.74c0.1-4.53,0.16-9.07,0.16-13.63c0-24.89-1.47-49.44-4.32-73.56
		c9.54-78.01,126.18-143.98,152.28-164.08c29.58-22.78,11.24-60.68,11.24-60.68s-126.13-219.32-139.59-242.73
		c-13.46-23.41-24.62-22.75-67.86-3.66c-111.85,50.72-176.33,50.37-212.08,39.14c-12.76-9.12-25.87-17.77-39.33-25.92
		c-0.43-0.63-0.72-1.1-0.88-1.38c0.14,0.25,0.39,0.68,0.73,1.29c-15.3-9.26-31.03-17.88-47.16-25.83h0c0,0,0,0,0,0
		c-8.85-4.36-17.82-8.52-26.91-12.46c-64.71-45.92-63.69-182.18-68.14-215.13c-5-37-47-40-47-40s-253,0-280,0s-32,10-37,57
		c-11.52,119.41-42.74,175.35-69.87,201.55c-15.67,7.06-31,14.76-45.95,23.06c-23.55,13.07-46.16,27.62-67.71,43.53
		c-72.87,23.14-181.42-42.6-210.78-55.16c-34.33-14.68-58.44,19.83-58.44,19.83S228.8,680.21,214.95,703.39s-7.83,32.6,29.96,61
		c90.38,66.55,124.22,119.41,135.23,156.02c-3.19,25.49-4.83,51.45-4.83,77.8c0,25.99,1.61,51.6,4.71,76.74
		c-9.1,77.54-122.72,145.45-148.15,166.02c-29.03,23.48-9.8,60.93-9.8,60.93s131.31,216.26,145.32,239.34s25.16,22.16,67.93,2.04
		c90.15-43.49,149.65-52.33,188.07-48.49c37.36,28.1,77.99,52.08,121.21,71.27c56.2,52.07,51.75,179.46,55.12,211.3
		c3.93,37.13,45.83,41.34,45.83,41.34s252.9,7.28,279.88,8.05s32.27-9.08,38.62-55.91c15.64-124.54,50.85-179,79.47-202.79
		c12.94-5.62,25.66-11.68,38.13-18.14c2.21-0.26,3.69-0.27,4.31-0.26c-0.53-0.02-1.73-0.06-3.58-0.13
		c20.63-10.73,40.59-22.58,59.78-35.47c-0.02,0.04-0.04,0.08-0.06,0.12c0.08-0.09,0.17-0.16,0.26-0.25
		c7.86-5.28,15.58-10.74,23.18-16.37c72.11-33.89,190.27,35.82,221.14,48.55c34.52,14.23,58.18-20.6,58.18-20.6
		s126.9-218.87,140.45-242.23C1798.84,1259.91,1792.7,1250.57,1754.55,1222.67z"/>
</g>
</svg>
